<?xml version="1.0" standalone="no"?>
<!DOCTYPE svg PUBLIC "-//W3C//DTD SVG 20010904//EN"
 "http://www.w3.org/TR/2001/REC-SVG-20010904/DTD/svg10.dtd">
<svg version="1.0" xmlns="http://www.w3.org/2000/svg"
 width="310.000000pt" height="310.000000pt" viewBox="0 0 310.000000 310.000000"
 preserveAspectRatio="xMidYMid meet" style="color:white">

  <g fill="currentColor" transform="translate(0.000000,310.000000) scale(0.100000,-0.100000)" stroke="none">
    <path d="M1641 2728 c-1 -104 -5 -189 -10 -193 -6 -3 -9 -14 -8 -25 1 -15 8
-20 32 -20 l30 1 -22 18 c-25 21 -30 36 -10 28 9 -3 11 6 8 35 -4 43 -7 41 55
24 17 -5 31 5 68 48 l47 55 -43 11 c-24 6 -47 12 -53 14 -5 2 -16 25 -23 52
-21 74 -21 74 -32 74 -5 0 -11 -15 -11 -32 -1 -24 -4 -18 -10 22 -5 30 -11 60
-13 65 -3 6 -5 -74 -5 -177z m146 -45 c3 -7 -3 -9 -17 -6 -29 8 -37 25 -9 21
12 -1 24 -8 26 -15z"/>
    <path d="M1521 2864 c-11 -15 -18 -31 -15 -36 9 -15 -7 -189 -17 -182 -5 3 -9
-2 -9 -10 0 -9 6 -16 13 -16 7 0 18 -9 25 -20 7 -11 21 -20 32 -20 24 0 80 51
63 57 -15 5 -19 182 -5 199 4 5 6 8 3 7 -2 -1 -12 9 -23 22 -25 32 -41 31 -67
-1z m57 -124 c2 -119 -4 -147 -32 -137 -12 5 -17 23 -18 74 -5 156 0 187 29
181 16 -3 18 -18 21 -118z"/>
    <path d="M1450 2809 l0 -64 -61 -16 -62 -16 -43 30 c-24 17 -44 34 -44 39 0 4
-8 8 -18 8 -10 0 -24 6 -32 13 -24 21 29 -45 103 -131 75 -85 73 -84 138 -70
10 2 14 -7 14 -33 0 -24 4 -35 12 -32 9 4 11 46 6 166 -6 164 -13 223 -13 106z"/>
    <path d="M2031 2782 c-1 -23 -86 -131 -218 -276 -47 -51 -63 -76 -64 -100 -2
-29 -2 -29 -6 -4 -2 15 0 36 6 47 9 17 8 18 -12 14 -12 -3 -26 -9 -32 -12 -5
-4 -26 -6 -47 -6 -20 0 -35 -2 -33 -3 2 -2 -10 -16 -26 -30 l-30 -27 1 -705
c0 -687 3 -785 21 -774 5 3 9 1 9 -4 0 -5 11 -21 25 -36 32 -34 71 -34 107 1
25 24 28 33 28 95 0 37 3 67 8 66 4 -1 24 4 45 11 34 12 40 11 51 -5 8 -10 18
-14 27 -9 8 4 1 -5 -16 -20 l-30 -26 32 5 c27 4 31 3 26 -12 -12 -31 -56 -62
-95 -68 -30 -5 -44 -15 -66 -47 -48 -71 -63 -77 -190 -80 l-113 -2 -46 48
c-45 48 -53 80 -10 39 36 -34 68 -28 113 20 l39 43 3 722 c2 659 1 725 -14
748 -9 14 -27 28 -40 31 -13 3 -24 10 -24 15 0 4 -15 7 -32 6 -18 0 -44 3 -58
7 -20 7 -23 6 -12 -5 6 -7 12 -17 12 -22 0 -4 -28 25 -62 65 -35 40 -100 115
-145 165 -46 51 -83 99 -83 105 -1 7 -7 0 -14 -17 -12 -28 -11 -33 16 -65 16
-19 33 -40 38 -46 5 -7 3 -18 -6 -28 -8 -9 -9 -11 -2 -6 15 13 38 13 38 1 0
-5 -34 -37 -76 -71 l-75 -61 -65 35 c-67 37 -119 50 -80 21 19 -15 19 -15 -4
-40 -13 -14 -22 -26 -19 -28 19 -15 161 -87 172 -87 7 0 24 12 38 26 29 31
143 114 155 113 5 0 39 -36 77 -79 l67 -79 0 -626 0 -626 -22 7 c-56 17 -128
46 -132 53 -3 4 -6 236 -7 514 0 292 -5 509 -10 513 -5 3 -9 -11 -9 -30 0 -32
-3 -36 -33 -41 -67 -13 -140 37 -187 128 -57 109 -141 178 -212 176 l-33 -1
38 -9 c21 -5 50 -15 65 -23 43 -22 107 -98 137 -159 41 -87 134 -148 202 -131
19 5 22 1 28 -38 3 -23 5 -272 3 -553 -3 -472 -4 -513 -22 -553 -19 -44 -68
-92 -74 -73 -2 6 -8 11 -13 11 -4 0 -6 -7 -2 -16 5 -14 2 -14 -33 0 -81 33
-152 162 -169 308 -6 58 -17 83 -78 182 -21 33 -51 96 -67 140 -17 45 -43 106
-58 136 -25 50 -27 67 -30 190 -2 74 1 175 8 223 7 49 10 91 7 94 -7 6 -29
-73 -31 -109 0 -16 -3 -28 -6 -28 -11 0 -15 -75 -14 -245 1 -154 3 -178 28
-260 36 -122 113 -275 181 -359 l55 -70 0 -126 c0 -123 1 -128 28 -162 34 -45
107 -84 116 -62 8 21 37 17 43 -6 4 -15 14 -20 39 -20 31 0 34 3 34 30 0 17 4
30 8 30 4 0 21 20 37 45 15 25 33 43 39 41 6 -3 44 -15 84 -28 55 -17 72 -26
72 -40 0 -43 55 -112 88 -113 10 0 27 3 40 7 15 5 21 4 17 -2 -4 -7 3 -8 21
-4 l28 7 -33 -29 -33 -29 0 -123 c0 -92 -3 -121 -12 -112 -7 7 -12 63 -14 145
-3 131 -13 169 -26 104 -3 -17 -6 -87 -6 -155 0 -117 2 -128 32 -196 17 -40
35 -77 40 -82 4 -6 8 69 8 166 l0 177 26 20 c29 23 55 16 74 -19 5 -10 10 -93
11 -187 l1 -168 40 85 40 85 -4 156 c-4 146 -3 157 15 168 10 7 29 36 42 64
l23 52 73 20 c41 11 77 20 80 20 13 0 79 -96 79 -115 0 -16 7 -20 35 -20 25 0
35 4 35 15 0 23 31 31 44 13 11 -14 16 -14 50 3 29 14 35 15 25 3 -7 -8 -31
-24 -54 -34 -23 -10 -48 -26 -55 -35 -7 -8 -18 -15 -26 -15 -7 0 -20 -10 -28
-21 -24 -35 -61 -18 -91 41 -14 28 -27 50 -29 50 -2 0 5 -23 15 -51 21 -54 25
-130 11 -189 -8 -33 -9 -30 -16 35 -10 98 -24 145 -42 145 -11 0 -14 -5 -9
-18 28 -66 37 -117 38 -202 0 -78 -5 -109 -26 -169 -15 -40 -24 -77 -21 -82 2
-5 -2 -22 -11 -38 -21 -41 -6 -45 46 -12 102 64 168 194 169 331 l1 55 85 59
c79 53 85 60 80 85 -16 69 -14 93 10 128 22 33 24 45 24 160 l0 123 44 55 c86
105 150 235 198 400 20 69 23 103 23 250 0 145 -4 185 -24 273 -13 56 -28 102
-34 102 -5 0 -6 -8 -3 -17 14 -35 28 -240 22 -318 -4 -60 -18 -116 -54 -220
-52 -148 -74 -198 -128 -282 -35 -56 -54 -110 -54 -160 0 -43 -46 -169 -81
-220 -35 -50 -108 -90 -137 -74 -32 17 -70 69 -82 109 -6 23 -10 237 -10 580
l0 542 53 0 c76 0 133 39 177 123 64 120 117 170 202 186 l43 9 -38 1 c-78 2
-150 -56 -206 -166 -33 -66 -82 -117 -114 -120 -12 -1 -37 -5 -55 -9 -37 -7
-61 7 -64 40 -2 11 -5 -210 -8 -493 l-5 -514 -77 -29 c-43 -15 -78 -24 -78
-20 0 4 0 285 -1 624 l-2 618 68 77 c37 43 71 79 75 81 4 1 45 -26 90 -60 46
-35 88 -67 95 -72 12 -9 157 64 171 85 3 6 -2 19 -11 29 -14 16 -15 23 -6 34
10 12 9 17 -7 25 -15 8 -31 2 -82 -29 -69 -42 -69 -42 -129 8 -35 30 -37 61
-2 43 18 -10 115 9 130 25 3 3 -3 4 -14 1 -65 -19 -73 -19 -89 4 -15 22 -13
61 5 85 5 6 4 15 -1 20 -6 6 -14 30 -19 55 -5 24 -9 33 -10 21z m19 -192 c8
-5 11 -12 7 -16 -4 -4 -15 0 -24 9 -18 18 -8 23 17 7z m-595 -237 c4 -42 5
-189 1 -327 -3 -138 -7 -371 -8 -518 -2 -146 -6 -264 -10 -262 -3 2 -9 -4 -13
-15 -3 -10 -15 -27 -26 -37 l-21 -19 3 365 c2 201 2 458 0 571 -3 218 5 264
45 287 11 6 16 14 11 18 -4 4 -17 -1 -29 -12 l-23 -19 19 23 c33 39 44 28 51
-55z m246 60 c13 -16 12 -17 -4 -4 -23 18 -34 7 -13 -14 41 -41 41 -41 46
-638 3 -317 2 -577 -1 -577 -3 0 -19 16 -36 35 -38 43 -37 32 -38 570 0 628 4
682 46 628z m-334 -85 c-3 -8 -6 -5 -6 6 -1 11 2 17 5 13 3 -3 4 -12 1 -19z
m380 0 c-3 -8 -6 -5 -6 6 -1 11 2 17 5 13 3 -3 4 -12 1 -19z m-380 -636 c-1
-97 -2 -15 -2 183 0 198 1 278 2 177 2 -101 2 -263 0 -360z m380 76 c-1 -68
-3 -15 -3 117 0 132 2 187 3 123 2 -64 2 -172 0 -240z m-434 -739 l37 -13 0
-63 0 -63 -26 10 c-41 16 -62 29 -89 56 -31 31 -31 32 3 27 27 -4 27 -4 7 14
-19 16 -19 20 -5 36 8 9 19 16 25 14 5 -2 27 -10 48 -18z m122 -19 c3 -5 -1
-10 -9 -10 -9 0 -16 5 -16 10 0 6 4 10 9 10 6 0 13 -4 16 -10z m260 0 c3 -5
-1 -10 -9 -10 -9 0 -16 5 -16 10 0 6 4 10 9 10 6 0 13 -4 16 -10z m502 -92
c-3 -8 -6 -5 -6 6 -1 11 2 17 5 13 3 -3 4 -12 1 -19z m-1045 -35 c-6 -10 -21
-27 -33 -38 -19 -16 -18 -14 4 13 15 19 27 38 27 44 0 6 3 9 6 6 3 -4 1 -15
-4 -25z m837 -28 c9 -12 4 -8 -11 7 -16 16 -28 34 -28 41 0 6 6 3 12 -8 6 -11
18 -29 27 -40z m193 18 c-22 -40 -45 -51 -92 -43 l-45 7 53 2 c47 1 55 4 70
30 18 32 30 35 14 4z m-522 -336 c-3 -77 -10 -140 -17 -152 -10 -16 -12 3 -13
107 l0 126 -29 24 -29 25 47 1 46 1 -5 -132z"/>
    <path d="M1125 2780 c-8 -12 24 -60 45 -68 9 -4 56 -52 104 -107 48 -55 99
-110 112 -122 34 -31 90 -30 136 1 l36 24 20 -20 c12 -12 39 -22 67 -26 l47
-5 67 74 c36 41 101 108 143 150 73 71 95 109 65 109 -17 0 -43 -28 -54 -58
-5 -12 -57 -74 -116 -137 -102 -108 -111 -115 -147 -115 -27 0 -48 8 -69 26
l-31 26 -31 -26 c-21 -18 -42 -26 -69 -26 -36 0 -45 7 -149 120 -61 65 -111
125 -111 133 0 13 -40 57 -53 57 -3 0 -9 -4 -12 -10z"/>
    <path d="M1425 2760 c-3 -5 -1 -10 4 -10 6 0 11 5 11 10 0 6 -2 10 -4 10 -3 0
-8 -4 -11 -10z"/>
    <path d="M1057 2599 c-23 -17 -32 -19 -64 -10 -20 6 -39 9 -41 6 -2 -2 15 -9
37 -15 37 -10 45 -8 71 10 27 19 36 30 26 30 -2 0 -15 -9 -29 -21z"/>
    <path d="M1585 2560 c-3 -6 1 -7 9 -4 18 7 21 14 7 14 -6 0 -13 -4 -16 -10z"/>
    <path d="M1602 2538 c-15 -15 -15 -25 1 -31 7 -3 13 5 13 19 2 28 2 28 -14 12z"/>
    <path d="M2473 2447 c-56 -56 -144 -149 -195 -206 -51 -58 -99 -106 -107 -109
-10 -3 -11 0 -5 9 15 25 -76 -52 -101 -86 -22 -27 -25 -42 -25 -108 0 -45 4
-77 10 -77 7 0 10 -168 10 -485 0 -267 3 -485 6 -485 18 0 67 47 90 86 57 97
106 263 105 359 0 45 2 54 9 35 7 -23 8 -23 9 9 1 19 14 76 31 127 49 154 66
406 35 512 -15 50 -15 53 9 99 44 83 46 84 42 10 -3 -65 -2 -67 15 -49 33 36
59 99 51 123 -7 18 5 48 60 145 73 132 80 151 48 134 -24 -13 -26 -2 -4 28 34
49 5 27 -93 -71z m-152 -557 c10 -60 10 -82 -4 -154 -9 -46 -26 -103 -37 -127
l-20 -44 4 170 c4 159 14 225 37 225 4 0 13 -31 20 -70z"/>
    <path d="M543 2518 c22 -35 22 -41 -3 -33 -11 3 -20 3 -20 -2 0 -4 28 -57 62
-118 50 -89 62 -118 61 -152 -1 -31 8 -59 34 -105 19 -35 32 -54 28 -43 -4 12
-3 16 3 10 20 -22 32 -82 32 -166 0 -126 27 -288 66 -403 19 -55 34 -115 34
-134 0 -35 0 -35 -20 -17 -62 56 -127 264 -140 445 l-9 125 4 -125 c5 -183 53
-340 143 -472 16 -24 37 -74 46 -113 22 -90 51 -169 81 -221 24 -41 78 -94 96
-94 5 0 11 203 13 478 3 262 7 515 11 561 l7 84 -63 63 c-35 35 -66 59 -69 54
-6 -10 -65 49 -249 249 -46 50 -102 106 -125 124 -40 32 -41 32 -23 5z m297
-776 c6 -192 -1 -203 -40 -59 -17 63 -21 101 -18 167 5 102 13 122 37 88 13
-18 17 -57 21 -196z"/>
    <path d="M1453 2515 c-27 -23 -27 -24 -6 -25 12 0 33 5 47 12 20 9 23 14 15
25 -16 18 -24 17 -56 -12z"/>
    <path d="M1524 2454 c-15 -22 -15 -27 -3 -35 21 -13 36 -11 53 7 9 8 16 17 16
19 0 7 -32 35 -40 35 -5 0 -17 -12 -26 -26z m41 -14 c-3 -5 -10 -10 -16 -10
-5 0 -9 5 -9 10 0 6 7 10 16 10 8 0 12 -4 9 -10z"/>
    <path d="M1482 2451 c-11 -7 -11 -9 1 -14 16 -6 27 0 27 15 0 10 -11 10 -28
-1z"/>
    <path d="M2411 2004 c0 -11 3 -14 6 -6 3 7 2 16 -1 19 -3 4 -6 -2 -5 -13z"/>
    <path d="M682 1960 c0 -19 2 -27 5 -17 2 9 2 25 0 35 -3 9 -5 1 -5 -18z"/>
    <path d="M2422 1845 c0 -189 -38 -338 -118 -468 -20 -32 -34 -61 -31 -64 6 -5
43 50 74 112 63 122 101 339 85 475 -9 73 -9 72 -10 -55z"/>
    <path d="M2040 880 c0 -5 5 -10 11 -10 5 0 7 5 4 10 -3 6 -8 10 -11 10 -2 0
-4 -4 -4 -10z"/>
    <path d="M886 697 c-12 -46 -5 -56 78 -116 l83 -60 5 -83 c9 -135 81 -258 180
-309 44 -23 48 -13 16 39 -17 28 -19 34 -6 29 13 -4 11 6 -10 51 -21 46 -27
76 -30 153 -4 89 1 120 34 237 5 16 2 22 -9 22 -11 0 -19 -20 -28 -72 -12 -65
-14 -69 -21 -42 -11 37 -3 106 17 144 9 17 12 30 8 30 -5 0 -19 -21 -33 -47
-29 -56 -73 -79 -94 -50 -7 9 -15 14 -19 11 -10 -10 -89 37 -94 57 -3 10 -10
19 -15 19 -5 0 -6 -4 -3 -10 9 -15 -7 -12 -32 5 -19 13 -21 13 -27 -8z"/>
  </g>
</svg>
